<svg width="24" height="24" viewBox="0 0 24 24" fill="none" xmlns="http://www.w3.org/2000/svg">
<mask id="mask0_166_2378" style="mask-type:alpha" maskUnits="userSpaceOnUse" x="0" y="0" width="24" height="24">
<rect width="24" height="24" fill="#D9D9D9"/>
</mask>
<g mask="url(#mask0_166_2378)">
<path d="M11.9998 22C11.7165 22 11.4791 21.904 11.2878 21.712C11.0958 21.5207 10.9998 21.2833 10.9998 21V5.82499L7.0998 9.69999C6.91647 9.88332 6.68714 9.97932 6.4118 9.98799C6.13714 9.99599 5.8998 9.89999 5.6998 9.69999C5.51647 9.51665 5.4248 9.28332 5.4248 8.99999C5.4248 8.71665 5.51647 8.48332 5.6998 8.29999L11.2998 2.69999C11.3998 2.59999 11.5081 2.52899 11.6248 2.48699C11.7415 2.44565 11.8665 2.42499 11.9998 2.42499C12.1331 2.42499 12.2581 2.44565 12.3748 2.48699C12.4915 2.52899 12.5998 2.59999 12.6998 2.69999L18.2998 8.29999C18.4831 8.48332 18.5748 8.71232 18.5748 8.98699C18.5748 9.26232 18.4831 9.49999 18.2998 9.69999C18.0998 9.89999 17.8621 9.99999 17.5868 9.99999C17.3121 9.99999 17.0748 9.89999 16.8748 9.69999L12.9998 5.82499V21C12.9998 21.2833 12.9041 21.5207 12.7128 21.712C12.5208 21.904 12.2831 22 11.9998 22Z" fill="#1C1B1F"/>
</g>
</svg>
