<svg width="25" height="24" viewBox="0 0 25 24" fill="none" xmlns="http://www.w3.org/2000/svg">
<mask id="mask0_201_3155" style="mask-type:alpha" maskUnits="userSpaceOnUse" x="0" y="0" width="25" height="24">
<rect x="0.333496" width="24" height="24" fill="#D9D9D9"/>
</mask>
<g mask="url(#mask0_201_3155)">
<path d="M6.3335 19H9.3335V13H15.3335V19H18.3335V10L12.3335 5.5L6.3335 10V19ZM6.3335 21C5.7835 21 5.31283 20.8043 4.9215 20.413C4.5295 20.021 4.3335 19.55 4.3335 19V10C4.3335 9.68333 4.4045 9.38333 4.5465 9.1C4.68783 8.81667 4.8835 8.58333 5.1335 8.4L11.1335 3.9C11.3168 3.76667 11.5085 3.66667 11.7085 3.6C11.9085 3.53333 12.1168 3.5 12.3335 3.5C12.5502 3.5 12.7585 3.53333 12.9585 3.6C13.1585 3.66667 13.3502 3.76667 13.5335 3.9L19.5335 8.4C19.7835 8.58333 19.9795 8.81667 20.1215 9.1C20.2628 9.38333 20.3335 9.68333 20.3335 10V19C20.3335 19.55 20.1378 20.021 19.7465 20.413C19.3545 20.8043 18.8835 21 18.3335 21H13.3335V15H11.3335V21H6.3335Z" fill="black"/>
</g>
</svg>
