<svg width="24" height="24" viewBox="0 0 24 24" fill="none" xmlns="http://www.w3.org/2000/svg">
<mask id="mask0_126_613" style="mask-type:alpha" maskUnits="userSpaceOnUse" x="0" y="0" width="24" height="24">
<rect width="24" height="24" fill="#D9D9D9"/>
</mask>
<g mask="url(#mask0_126_613)">
<path d="M19.9998 19C19.7165 19 19.4791 18.904 19.2878 18.712C19.0958 18.5207 18.9998 18.2834 18.9998 18V15C18.9998 14.1667 18.7081 13.4584 18.1248 12.875C17.5415 12.2917 16.8331 12 15.9998 12H6.7998L9.7248 14.925C9.90814 15.1084 9.9998 15.3334 9.9998 15.6C9.9998 15.8667 9.8998 16.1 9.6998 16.3C9.51647 16.4834 9.28314 16.575 8.9998 16.575C8.71647 16.575 8.48314 16.4834 8.2998 16.3L3.6998 11.7C3.5998 11.6 3.52914 11.4917 3.4878 11.375C3.4458 11.2584 3.4248 11.1334 3.4248 11C3.4248 10.8667 3.4458 10.7417 3.4878 10.625C3.52914 10.5084 3.5998 10.4 3.6998 10.3L8.3248 5.67502C8.50814 5.49169 8.73314 5.40002 8.9998 5.40002C9.26647 5.40002 9.4998 5.50002 9.6998 5.70002C9.88314 5.88336 9.9748 6.11669 9.9748 6.40002C9.9748 6.68336 9.88314 6.91669 9.6998 7.10002L6.7998 10H15.9998C17.3831 10 18.5625 10.4874 19.5378 11.462C20.5125 12.4374 20.9998 13.6167 20.9998 15V18C20.9998 18.2834 20.9038 18.5207 20.7118 18.712C20.5205 18.904 20.2831 19 19.9998 19Z" fill="black"/>
</g>
</svg>
