<svg width="25" height="24" viewBox="0 0 25 24" fill="none" xmlns="http://www.w3.org/2000/svg">
<mask id="mask0_134_1537" style="mask-type:alpha" maskUnits="userSpaceOnUse" x="0" y="0" width="25" height="24">
<rect x="0.666992" width="24" height="24" fill="#D9D9D9"/>
</mask>
<g mask="url(#mask0_134_1537)">
<path d="M14.5418 22H10.7918C10.5418 22 10.3252 21.9167 10.1418 21.75C9.95851 21.5833 9.85017 21.375 9.81684 21.125L9.51684 18.8C9.30017 18.7167 9.09617 18.6167 8.90484 18.5C8.71284 18.3833 8.52517 18.2583 8.34184 18.125L6.16684 19.025C5.93351 19.1083 5.70017 19.1167 5.46684 19.05C5.23351 18.9833 5.05017 18.8417 4.91684 18.625L3.06684 15.4C2.93351 15.1833 2.89184 14.95 2.94184 14.7C2.99184 14.45 3.11684 14.25 3.31684 14.1L5.19184 12.675C5.17517 12.5583 5.16684 12.4457 5.16684 12.337V11.662C5.16684 11.554 5.17517 11.4417 5.19184 11.325L3.31684 9.9C3.11684 9.75 2.99184 9.55 2.94184 9.3C2.89184 9.05 2.93351 8.81667 3.06684 8.6L4.91684 5.375C5.03351 5.14167 5.21251 4.99567 5.45384 4.937C5.69584 4.879 5.93351 4.89167 6.16684 4.975L8.34184 5.875C8.52517 5.74167 8.71684 5.61667 8.91684 5.5C9.11684 5.38333 9.31684 5.28333 9.51684 5.2L9.81684 2.875C9.85017 2.625 9.95851 2.41667 10.1418 2.25C10.3252 2.08333 10.5418 2 10.7918 2H14.5418C14.7918 2 15.0085 2.08333 15.1918 2.25C15.3752 2.41667 15.4835 2.625 15.5168 2.875L15.8168 5.2C16.0335 5.28333 16.2378 5.38333 16.4298 5.5C16.6212 5.61667 16.8085 5.74167 16.9918 5.875L19.1668 4.975C19.4002 4.89167 19.6335 4.88333 19.8668 4.95C20.1002 5.01667 20.2835 5.15833 20.4168 5.375L22.2668 8.6C22.4002 8.81667 22.4418 9.05 22.3918 9.3C22.3418 9.55 22.2168 9.75 22.0168 9.9L20.1418 11.325C20.1585 11.4417 20.1668 11.554 20.1668 11.662V12.337C20.1668 12.4457 20.1502 12.5583 20.1168 12.675L21.9918 14.1C22.1918 14.25 22.3168 14.45 22.3668 14.7C22.4168 14.95 22.3752 15.1833 22.2418 15.4L20.3918 18.6C20.2585 18.8167 20.0712 18.9627 19.8298 19.038C19.5878 19.1127 19.3502 19.1083 19.1168 19.025L16.9918 18.125C16.8085 18.2583 16.6168 18.3833 16.4168 18.5C16.2168 18.6167 16.0168 18.7167 15.8168 18.8L15.5168 21.125C15.4835 21.375 15.3752 21.5833 15.1918 21.75C15.0085 21.9167 14.7918 22 14.5418 22ZM12.7168 15.5C13.6835 15.5 14.5085 15.1583 15.1918 14.475C15.8752 13.7917 16.2168 12.9667 16.2168 12C16.2168 11.0333 15.8752 10.2083 15.1918 9.525C14.5085 8.84167 13.6835 8.5 12.7168 8.5C11.7335 8.5 10.9042 8.84167 10.2288 9.525C9.55417 10.2083 9.21684 11.0333 9.21684 12C9.21684 12.9667 9.55417 13.7917 10.2288 14.475C10.9042 15.1583 11.7335 15.5 12.7168 15.5ZM12.7168 13.5C12.3002 13.5 11.9462 13.354 11.6548 13.062C11.3628 12.7707 11.2168 12.4167 11.2168 12C11.2168 11.5833 11.3628 11.2293 11.6548 10.938C11.9462 10.646 12.3002 10.5 12.7168 10.5C13.1335 10.5 13.4878 10.646 13.7798 10.938C14.0712 11.2293 14.2168 11.5833 14.2168 12C14.2168 12.4167 14.0712 12.7707 13.7798 13.062C13.4878 13.354 13.1335 13.5 12.7168 13.5ZM11.6668 20H13.6418L13.9918 17.35C14.5085 17.2167 14.9878 17.0207 15.4298 16.762C15.8712 16.504 16.2752 16.1917 16.6418 15.825L19.1168 16.85L20.0918 15.15L17.9418 13.525C18.0252 13.2917 18.0835 13.0457 18.1168 12.787C18.1502 12.529 18.1668 12.2667 18.1668 12C18.1668 11.7333 18.1502 11.4707 18.1168 11.212C18.0835 10.954 18.0252 10.7083 17.9418 10.475L20.0918 8.85L19.1168 7.15L16.6418 8.2C16.2752 7.81667 15.8712 7.49567 15.4298 7.237C14.9878 6.979 14.5085 6.78333 13.9918 6.65L13.6668 4H11.6918L11.3418 6.65C10.8252 6.78333 10.3462 6.979 9.90484 7.237C9.46284 7.49567 9.05851 7.80833 8.69184 8.175L6.21684 7.15L5.24184 8.85L7.39184 10.45C7.30851 10.7 7.25017 10.95 7.21684 11.2C7.18351 11.45 7.16684 11.7167 7.16684 12C7.16684 12.2667 7.18351 12.525 7.21684 12.775C7.25017 13.025 7.30851 13.275 7.39184 13.525L5.24184 15.15L6.21684 16.85L8.69184 15.8C9.05851 16.1833 9.46284 16.504 9.90484 16.762C10.3462 17.0207 10.8252 17.2167 11.3418 17.35L11.6668 20Z" fill="black"/>
</g>
</svg>
